<?xml version="1.0" encoding="UTF-8" standalone="no"?>
<!-- Created with Inkscape (http://www.inkscape.org/) -->

<svg
   xmlns:dc="http://purl.org/dc/elements/1.1/"
   xmlns:cc="http://creativecommons.org/ns#"
   xmlns:rdf="http://www.w3.org/1999/02/22-rdf-syntax-ns#"
   xmlns:svg="http://www.w3.org/2000/svg"
   xmlns="http://www.w3.org/2000/svg"
   xmlns:sodipodi="http://sodipodi.sourceforge.net/DTD/sodipodi-0.dtd"
   xmlns:inkscape="http://www.inkscape.org/namespaces/inkscape"
   width="192"
   height="192"
   id="svg2"
   version="1.1"
   inkscape:version="0.48.4 r9939"
   sodipodi:docname="tileDirt.svg">
  <defs
     id="defs4" />
  <sodipodi:namedview
     id="base"
     pagecolor="#ffffff"
     bordercolor="#666666"
     borderopacity="1.0"
     inkscape:pageopacity="0.0"
     inkscape:pageshadow="2"
     inkscape:zoom="3.959798"
     inkscape:cx="154.27417"
     inkscape:cy="94.547869"
     inkscape:document-units="px"
     inkscape:current-layer="layer1"
     showgrid="true"
     inkscape:window-width="1920"
     inkscape:window-height="1018"
     inkscape:window-x="-8"
     inkscape:window-y="-8"
     inkscape:window-maximized="1"
     showguides="true"
     inkscape:guide-bbox="true">
    <inkscape:grid
       type="xygrid"
       id="grid2985"
       empspacing="4"
       visible="true"
       enabled="true"
       snapvisiblegridlinesonly="true"
       dotted="true" />
  </sodipodi:namedview>
  <metadata
     id="metadata7">
    <rdf:RDF>
      <cc:Work
         rdf:about="">
        <dc:format>image/svg+xml</dc:format>
        <dc:type
           rdf:resource="http://purl.org/dc/dcmitype/StillImage" />
        <dc:title />
      </cc:Work>
    </rdf:RDF>
  </metadata>
  <g
     inkscape:label="Layer 1"
     inkscape:groupmode="layer"
     id="layer1"
     transform="translate(0,-860.36218)">
    <rect
       style="fill:#502d16;stroke:none"
       id="rect2987"
       width="192"
       height="192"
       x="0"
       y="0"
       transform="translate(0,860.36218)" />
    <path
       style="fill:#784421;stroke:none"
       d="M 0 0 L 0 42.28125 C 11.646185 38.159785 20 27.058082 20 14 C 20 8.9456083 18.738899 4.1782598 16.53125 0 L 0 0 z M 32.34375 0 C 32.125623 1.3005132 32 2.6375065 32 4 C 32 17.254834 42.745166 28 56 28 C 69.254834 28 80 17.254834 80 4 C 80 2.6375065 79.874377 1.3005132 79.65625 0 L 32.34375 0 z M 90.6875 0 C 95.183725 9.4535386 104.83498 16 116 16 C 127.16502 16 136.81627 9.4535386 141.3125 0 L 90.6875 0 z M 155.46875 0 C 153.2611 4.1782598 152 8.9456083 152 14 C 152 30.568542 165.43146 44 182 44 C 185.51046 44 188.86911 43.389241 192 42.28125 L 192 0 L 155.46875 0 z M 96 16 C 89.372583 16 84 21.372583 84 28 C 84 34.627417 89.372583 40 96 40 C 102.62742 40 108 34.627417 108 28 C 108 21.372583 102.62742 16 96 16 z M 130 20 C 122.26801 20 116 26.268014 116 34 C 116 41.731986 122.26801 48 130 48 C 137.73199 48 144 41.731986 144 34 C 144 26.268014 137.73199 20 130 20 z M 40 28 C 31.163444 28 24 35.163444 24 44 C 24 52.836556 31.163444 60 40 60 C 48.836556 60 56 52.836556 56 44 C 56 35.163444 48.836556 28 40 28 z M 70 32 C 64.477153 32 60 36.477153 60 42 C 60 47.522847 64.477153 52 70 52 C 75.522847 52 80 47.522847 80 42 C 80 36.477153 75.522847 32 70 32 z M 102 44 C 83.222319 44 68 59.222319 68 78 C 68 96.777681 83.222319 112 102 112 C 120.77768 112 136 96.777681 136 78 C 136 59.222319 120.77768 44 102 44 z M 8 48 C 5.1937031 48 2.503149 48.489857 0 49.375 L 0 94.625 C 2.503149 95.510143 5.1937031 96 8 96 C 21.254834 96 32 85.254834 32 72 C 32 58.745166 21.254834 48 8 48 z M 192 49.375 C 182.68016 52.670608 176 61.551463 176 72 C 176 82.448537 182.68016 91.329392 192 94.625 L 192 49.375 z M 156 52 C 147.16344 52 140 59.163444 140 68 C 140 76.836556 147.16344 84 156 84 C 164.83656 84 172 76.836556 172 68 C 172 59.163444 164.83656 52 156 52 z M 50 68 C 42.268014 68 36 74.268014 36 82 C 36 89.731986 42.268014 96 50 96 C 57.731986 96 64 89.731986 64 82 C 64 74.268014 57.731986 68 50 68 z M 144 92 C 137.37258 92 132 97.372583 132 104 C 132 110.62742 137.37258 116 144 116 C 150.62742 116 156 110.62742 156 104 C 156 97.372583 150.62742 92 144 92 z M 170 92 C 164.47715 92 160 96.477153 160 102 C 160 107.52285 164.47715 112 170 112 C 175.52285 112 180 107.52285 180 102 C 180 96.477153 175.52285 92 170 92 z M 12 100 C 5.372583 100 1.2143064e-017 105.37258 0 112 C 0 118.62742 5.372583 124 12 124 C 18.627417 124 24 118.62742 24 112 C 24 105.37258 18.627417 100 12 100 z M 44 100 C 37.372583 100 32 105.37258 32 112 C 32 118.62742 37.372583 124 44 124 C 50.627417 124 56 118.62742 56 112 C 56 105.37258 50.627417 100 44 100 z M 70 108 C 66.686292 108 64 110.68629 64 114 C 64 117.31371 66.686292 120 70 120 C 73.313708 120 76 117.31371 76 114 C 76 110.68629 73.313708 108 70 108 z M 122 112 C 118.68629 112 116 114.68629 116 118 C 116 121.31371 118.68629 124 122 124 C 125.31371 124 128 121.31371 128 118 C 128 114.68629 125.31371 112 122 112 z M 176 116 C 162.74517 116 152 126.74517 152 140 C 152 153.25483 162.74517 164 176 164 C 182.14957 164 187.75327 161.67834 192 157.875 L 192 122.125 C 187.75327 118.32166 182.14957 116 176 116 z M 104 120 C 97.372583 120 92 125.37258 92 132 C 92 138.62742 97.372583 144 104 144 C 110.62742 144 116 138.62742 116 132 C 116 125.37258 110.62742 120 104 120 z M 140 120 C 135.58172 120 132 123.58172 132 128 C 132 132.41828 135.58172 136 140 136 C 144.41828 136 148 132.41828 148 128 C 148 123.58172 144.41828 120 140 120 z M 0 122.125 L 0 157.875 C 4.9067031 153.48059 8 147.10526 8 140 C 8 132.89474 4.9067031 126.51941 0 122.125 z M 26 124 C 22.686292 124 20 126.68629 20 130 C 20 133.31371 22.686292 136 26 136 C 29.313708 136 32 133.31371 32 130 C 32 126.68629 29.313708 124 26 124 z M 70 124 C 57.849736 124 48 133.84974 48 146 C 48 158.15026 57.849736 168 70 168 C 82.150264 168 92 158.15026 92 146 C 92 133.84974 82.150264 124 70 124 z M 26 140 C 16.058875 140 8 148.05887 8 158 C 8 167.94113 16.058875 176 26 176 C 35.941125 176 44 167.94113 44 158 C 44 148.05887 35.941125 140 26 140 z M 142 140 C 136.47715 140 132 144.47715 132 150 C 132 155.52285 136.47715 160 142 160 C 147.52285 160 152 155.52285 152 150 C 152 144.47715 147.52285 140 142 140 z M 116 152 C 100.53603 152 88 164.53603 88 180 C 88 184.29895 88.956284 188.36003 90.6875 192 L 141.3125 192 C 143.04372 188.36003 144 184.29895 144 180 C 144 164.53603 131.46397 152 116 152 z M 154 164 C 150.68629 164 148 166.68629 148 170 C 148 173.31371 150.68629 176 154 176 C 157.31371 176 160 173.31371 160 170 C 160 166.68629 157.31371 164 154 164 z M 56 172 C 44.10766 172 34.247643 180.64865 32.34375 192 L 79.65625 192 C 77.752357 180.64865 67.89234 172 56 172 z M 182 176 C 170.48585 176 160.49788 182.48172 155.46875 192 L 192 192 L 192 177.71875 C 188.86911 176.61076 185.51046 176 182 176 z M 0 177.6875 L 0 192 L 16.53125 192 C 13.033146 185.37939 7.1412454 180.21046 0 177.6875 z "
       transform="translate(0,860.36218)"
       id="path2991" />
    <path
       style="fill:#a05a2c;stroke:none"
       d="m 0,860.36218 0,38.03125 c 9.39953,-3.91655 16,-13.21276 16,-24.03125 0,-5.16041 -1.50107,-9.95595 -4.09375,-14 l -11.90625,0 z m 36.40625,0 c -0.26251,1.29282 -0.40625,2.62971 -0.40625,4 0,11.0457 8.9543,20 20,20 11.0457,0 20,-8.9543 20,-20 0,-1.37029 -0.14374,-2.70718 -0.40625,-4 l -39.1875,0 z m 58.8125,0 c 4.15075,7.16962 11.90086,12 20.78125,12 8.88039,0 16.6305,-4.83038 20.78125,-12 l -41.5625,0 z m 64.875,0 c -2.59268,4.04405 -4.09375,8.83959 -4.09375,14 0,14.3594 11.6406,26 26,26 3.54092,0 6.92351,-0.68685 10,-1.96875 l 0,-38.03125 -31.90625,0 z m -64.09375,20 c -4.41828,0 -8,3.58172 -8,8 0,4.41828 3.58172,8 8,8 4.41828,0 8,-3.58172 8,-8 0,-4.41828 -3.58172,-8 -8,-8 z m 34,4 c -5.52285,0 -10,4.47715 -10,10 0,5.52285 4.47715,10 10,10 5.52285,0 10,-4.47715 10,-10 0,-5.52285 -4.47715,-10 -10,-10 z m -90,8 c -6.62742,0 -12,5.37258 -12,12 0,6.62742 5.37258,12 12,12 6.62742,0 12,-5.37258 12,-12 0,-6.62742 -5.37258,-12 -12,-12 z m 30,4 c -3.31371,0 -6,2.68629 -6,6 0,3.31371 2.68629,6 6,6 3.31371,0 6,-2.68629 6,-6 0,-3.31371 -2.68629,-6 -6,-6 z m 32,12 c -16.56854,0 -30,13.43146 -30,30 0,16.56854 13.43146,30 30,30 16.56854,0 30,-13.43146 30,-30 0,-16.56854 -13.43146,-30 -30,-30 z m -94,4 c -2.84591,0 -5.54913,0.5848 -8,1.65625 l 0,36.6875 c 2.45087,1.07145 5.15409,1.65625 8,1.65625 11.04569,0 20,-8.9543 20,-20 0,-11.04569 -8.95431,-20 -20,-20 z m 184,1.65625 c -7.06156,3.08711 -12,10.14397 -12,18.34375 0,8.19979 4.93844,15.25664 12,18.34375 l 0,-36.6875 z m -36,2.34375 c -6.62742,0 -12,5.37258 -12,12 0,6.62742 5.37258,12 12,12 6.62742,0 12,-5.37258 12,-12 0,-6.62742 -5.37258,-12 -12,-12 z m -106,16 c -5.52285,0 -10,4.47715 -10,10 0,5.52285 4.47715,10 10,10 5.52285,0 10,-4.47715 10,-10 0,-5.52285 -4.47715,-10 -10,-10 z m 94,24 c -4.41828,0 -8,3.58172 -8,8 0,4.41828 3.58172,8 8,8 4.41828,0 8,-3.58172 8,-8 0,-4.41828 -3.58172,-8 -8,-8 z m 26,0 c -3.31371,0 -6,2.68629 -6,6 0,3.31371 2.68629,6 6,6 3.31371,0 6,-2.68629 6,-6 0,-3.31371 -2.68629,-6 -6,-6 z m -158,8 c -4.41828,0 -8,3.58172 -8,8 0,4.41828 3.58172,8 8,8 4.41828,0 8,-3.58172 8,-8 0,-4.41828 -3.58172,-8 -8,-8 z m 32,0 c -4.41828,0 -8,3.58172 -8,8 0,4.41828 3.58172,8 8,8 4.41828,0 8,-3.58172 8,-8 0,-4.41828 -3.58172,-8 -8,-8 z m 26,8 c -1.10457,0 -2,0.89543 -2,2 0,1.10457 0.89543,2 2,2 1.10457,0 2,-0.89543 2,-2 0,-1.10457 -0.89543,-2 -2,-2 z m 52,4 c -1.10457,0 -2,0.89543 -2,2 0,1.10457 0.89543,2 2,2 1.10457,0 2,-0.89543 2,-2 0,-1.10457 -0.89543,-2 -2,-2 z m 54,4 c -11.04569,0 -20,8.95429 -20,20.00002 0,11.0457 8.95431,20 20,20 6.5505,0 12.35192,-3.1643 16,-8.0313 l 0,-23.93747 c -3.64808,-4.86696 -9.4495,-8.03125 -16,-8.03125 z m -72,4 c -4.41828,0 -8,3.58172 -8,8 0,4.41828 3.58172,8.00002 8,8.00002 4.41828,0 8,-3.58174 8,-8.00002 0,-4.41828 -3.58172,-8 -8,-8 z m 36,0 c -2.20914,0 -4,1.79086 -4,4 0,2.20914 1.79086,4 4,4 2.20914,0 4,-1.79086 4,-4 0,-2.20914 -1.79086,-4 -4,-4 z m -114,4 c -1.10457,0 -2,0.89543 -2,2 0,1.10457 0.89543,2 2,2 1.10457,0 2,-0.89543 2,-2 0,-1.10457 -0.89543,-2 -2,-2 z m 44,0 c -9.94113,0 -18,8.05885 -18,18.00002 0,9.9411 8.05887,18 18,18 9.94112,0 18,-8.0589 18,-18 0,-9.94117 -8.05888,-18.00002 -18,-18.00002 z m -70,0.0312 0,23.93742 c 2.50344,-3.3398 4,-7.4735 4,-11.9687 0,-4.49518 -1.49656,-8.62884 -4,-11.96872 z m 26,15.96872 c -7.73199,0 -14,6.268 -14,14 0,7.7321 6.26801,14.0001 14,14.0001 7.73199,0 14,-6.268 14,-14.0001 0,-7.732 -6.26801,-14 -14,-14 z m 116,0 c -3.31371,0 -6,2.6863 -6,6 0,3.3137 2.68629,6 6,6 3.31371,0 6,-2.6863 6,-6 0,-3.3137 -2.68629,-6 -6,-6 z m -26,12 c -13.25483,0 -24,10.7453 -24,24.0001 0,4.3743 1.17411,8.4683 3.21875,12 l 41.5625,0 c 2.04464,-3.5317 3.21875,-7.6257 3.21875,-12 0,-13.2548 -10.74517,-24.0001 -24,-24.0001 z m 38,12.0001 c -1.10457,0 -2,0.8954 -2,2 0,1.1045 0.89543,2 2,2 1.10457,0 2,-0.8955 2,-2 0,-1.1046 -0.89543,-2 -2,-2 z m -98,8 c -9.6754,0 -17.7402,6.8715 -19.59375,16 l 39.1875,0 c -1.85355,-9.1285 -9.91835,-16 -19.59375,-16 z m 126,4 c -9.19899,0 -17.28451,4.7909 -21.90625,12 l 31.90625,0 0,-10.0314 c -3.07649,-1.2819 -6.45908,-1.9686 -10,-1.9686 z m -182,1.9686 0,10.0314 11.90625,0 C 9.06353,1047.9281 4.91596,1044.3793 0,1042.3309 z"
       id="path2987"
       inkscape:connector-curvature="0" />
  </g>
</svg>
